<svg xmlns="http://www.w3.org/2000/svg" xmlns:xlink="http://www.w3.org/1999/xlink" contentStyleType="text/css" data-diagram-type="CLASS" height="476px" preserveAspectRatio="none" style="width:3113px;height:476px;background:#FFFFFF;" version="1.1" viewBox="0 0 3113 476" width="3113px" zoomAndPan="magnify"><title>Relaciones entre Protocolos de Correo Electr&#243;nico</title><defs/><g><g class="title" data-source-line="1"><text fill="#000000" font-family="sans-serif" font-size="14" font-weight="bold" lengthAdjust="spacing" textLength="396.1016" x="1351.6026" y="22.9951">Relaciones entre Protocolos de Correo Electr&#243;nico</text></g><!--class SMTP--><g class="entity" data-entity="SMTP" data-source-line="4" data-uid="ent0002" id="entity_SMTP"><rect fill="#F1F1F1" height="80.5938" rx="2.5" ry="2.5" style="stroke:#181818;stroke-width:0.5;" width="207.0977" x="1334.44" y="216.0669"/><ellipse cx="1414.7588" cy="232.0669" fill="#ADD1B2" rx="11" ry="11" style="stroke:#181818;stroke-width:1;"/><path d="M1417.7276,237.7075 Q1417.1495,238.0044 1416.5088,238.145 Q1415.8682,238.3012 1415.1651,238.3012 Q1412.6651,238.3012 1411.337,236.6606 Q1410.0245,235.0044 1410.0245,231.8794 Q1410.0245,228.7544 1411.337,227.0981 Q1412.6651,225.4419 1415.1651,225.4419 Q1415.8682,225.4419 1416.5088,225.5981 Q1417.1651,225.7544 1417.7276,226.0512 L1417.7276,228.77 Q1417.1026,228.1919 1416.5088,227.9262 Q1415.9151,227.645 1415.2901,227.645 Q1413.9463,227.645 1413.2588,228.7231 Q1412.5713,229.7856 1412.5713,231.8794 Q1412.5713,233.9731 1413.2588,235.0512 Q1413.9463,236.1137 1415.2901,236.1137 Q1415.9151,236.1137 1416.5088,235.8481 Q1417.1026,235.5669 1417.7276,234.9887 L1417.7276,237.7075 Z " fill="#000000"/><text fill="#000000" font-family="sans-serif" font-size="14" lengthAdjust="spacing" textLength="37.96" x="1435.2588" y="236.9136">SMTP</text><line style="stroke:#181818;stroke-width:0.5;" x1="1335.44" x2="1540.5377" y1="248.0669" y2="248.0669"/><ellipse cx="1345.44" cy="261.7153" fill="none" rx="3" ry="3" style="stroke:#038048;stroke-width:1;"/><text fill="#000000" font-family="sans-serif" font-size="14" lengthAdjust="spacing" textLength="113.0596" x="1354.44" y="265.062">Puerto: 25 / 587</text><ellipse cx="1345.44" cy="278.0122" fill="none" rx="3" ry="3" style="stroke:#038048;stroke-width:1;"/><text fill="#000000" font-family="sans-serif" font-size="14" lengthAdjust="spacing" textLength="181.0977" x="1354.44" y="281.3589">Funci&#243;n: Env&#237;o de correos</text><line style="stroke:#181818;stroke-width:0.5;" x1="1335.44" x2="1540.5377" y1="288.6606" y2="288.6606"/></g><g class="entity" data-entity="GMN3" data-source-line="10" data-uid="ent0004" id="entity_GMN3"><path d="M1576.42,205.9669 L1576.42,252.3669 L1541.91,256.3669 L1576.42,260.3669 L1576.42,306.7638 A0,0 0 0 0 1576.42,306.7638 L1979.5616,306.7638 A0,0 0 0 0 1979.5616,306.7638 L1979.5616,215.9669 L1969.5616,205.9669 L1576.42,205.9669 A0,0 0 0 0 1576.42,205.9669" fill="#FEFFDD" style="stroke:#181818;stroke-width:0.5;"/><path d="M1969.5616,205.9669 L1969.5616,215.9669 L1979.5616,215.9669 L1969.5616,205.9669" fill="#FEFFDD" style="stroke:#181818;stroke-width:0.5;"/><text fill="#000000" font-family="sans-serif" font-size="13" lengthAdjust="spacing" textLength="382.1416" x="1582.42" y="223.0338">Protocolo para enviar correos electr&#243;nicos desde el cliente</text><text fill="#000000" font-family="sans-serif" font-size="13" lengthAdjust="spacing" textLength="300.936" x="1582.42" y="238.1666">hacia el servidor o entre servidores de correo.</text><text fill="#000000" font-family="sans-serif" font-size="13" lengthAdjust="spacing" textLength="4.1323" x="1582.42" y="253.2994">&#160;</text><text fill="#000000" font-family="sans-serif" font-size="13" lengthAdjust="spacing" textLength="56.6846" x="1582.42" y="268.4322">Ejemplo:</text><text fill="#000000" font-family="sans-serif" font-size="13" lengthAdjust="spacing" textLength="249.2217" x="1582.42" y="283.565">Gmail usa SMTP para enviar mensajes</text><text fill="#000000" font-family="sans-serif" font-size="13" lengthAdjust="spacing" textLength="261.2632" x="1582.42" y="298.6978">a otros servicios como Outlook o Yahoo.</text></g><!--class POP3--><g class="entity" data-entity="POP3" data-source-line="18" data-uid="ent0006" id="entity_POP3"><rect fill="#F1F1F1" height="80.5938" rx="2.5" ry="2.5" style="stroke:#181818;stroke-width:0.5;" width="247.9766" x="7" y="216.0669"/><ellipse cx="108.3325" cy="232.0669" fill="#ADD1B2" rx="11" ry="11" style="stroke:#181818;stroke-width:1;"/><path d="M111.3013,237.7075 Q110.7231,238.0044 110.0825,238.145 Q109.4419,238.3012 108.7388,238.3012 Q106.2388,238.3012 104.9106,236.6606 Q103.5981,235.0044 103.5981,231.8794 Q103.5981,228.7544 104.9106,227.0981 Q106.2388,225.4419 108.7388,225.4419 Q109.4419,225.4419 110.0825,225.5981 Q110.7388,225.7544 111.3013,226.0512 L111.3013,228.77 Q110.6763,228.1919 110.0825,227.9262 Q109.4888,227.645 108.8638,227.645 Q107.52,227.645 106.8325,228.7231 Q106.145,229.7856 106.145,231.8794 Q106.145,233.9731 106.8325,235.0512 Q107.52,236.1137 108.8638,236.1137 Q109.4888,236.1137 110.0825,235.8481 Q110.6763,235.5669 111.3013,234.9887 L111.3013,237.7075 Z " fill="#000000"/><text fill="#000000" font-family="sans-serif" font-size="14" lengthAdjust="spacing" textLength="36.8115" x="128.8325" y="236.9136">POP3</text><line style="stroke:#181818;stroke-width:0.5;" x1="8" x2="253.9766" y1="248.0669" y2="248.0669"/><ellipse cx="18" cy="261.7153" fill="none" rx="3" ry="3" style="stroke:#038048;stroke-width:1;"/><text fill="#000000" font-family="sans-serif" font-size="14" lengthAdjust="spacing" textLength="121.9668" x="27" y="265.062">Puerto: 110 / 995</text><line style="stroke:#181818;stroke-width:0.5;" x1="8" x2="253.9766" y1="272.3638" y2="272.3638"/><ellipse cx="18" cy="286.0122" fill="#84BE84" rx="3" ry="3" style="stroke:#038048;stroke-width:1;"/><text fill="#000000" font-family="sans-serif" font-size="14" lengthAdjust="spacing" textLength="221.9766" x="27" y="289.3589">Funci&#243;n: Recepci&#243;n (descargar)</text></g><g class="entity" data-entity="GMN7" data-source-line="24" data-uid="ent0008" id="entity_GMN7"><path d="M289.64,205.9669 L289.64,252.3669 L255.44,256.3669 L289.64,260.3669 L289.64,306.7638 A0,0 0 0 0 289.64,306.7638 L614.3373,306.7638 A0,0 0 0 0 614.3373,306.7638 L614.3373,215.9669 L604.3373,205.9669 L289.64,205.9669 A0,0 0 0 0 289.64,205.9669" fill="#FEFFDD" style="stroke:#181818;stroke-width:0.5;"/><path d="M604.3373,205.9669 L604.3373,215.9669 L614.3373,215.9669 L604.3373,205.9669" fill="#FEFFDD" style="stroke:#181818;stroke-width:0.5;"/><text fill="#000000" font-family="sans-serif" font-size="13" lengthAdjust="spacing" textLength="299.2222" x="295.64" y="223.0338">Protocolo para recibir correos descarg&#225;ndolos</text><text fill="#000000" font-family="sans-serif" font-size="13" lengthAdjust="spacing" textLength="303.6973" x="295.64" y="238.1666">al dispositivo local, elimin&#225;ndolos del servidor.</text><text fill="#000000" font-family="sans-serif" font-size="13" lengthAdjust="spacing" textLength="4.1323" x="295.64" y="253.2994">&#160;</text><text fill="#000000" font-family="sans-serif" font-size="13" lengthAdjust="spacing" textLength="56.6846" x="295.64" y="268.4322">Ejemplo:</text><text fill="#000000" font-family="sans-serif" font-size="13" lengthAdjust="spacing" textLength="244.9307" x="295.64" y="283.565">Un cliente de escritorio (Thunderbird)</text><text fill="#000000" font-family="sans-serif" font-size="13" lengthAdjust="spacing" textLength="293.3379" x="295.64" y="298.6978">descarga los correos y los borra del servidor.</text></g><!--class IMAP--><g class="entity" data-entity="IMAP" data-source-line="32" data-uid="ent0010" id="entity_IMAP"><rect fill="#F1F1F1" height="80.5938" rx="2.5" ry="2.5" style="stroke:#181818;stroke-width:0.5;" width="266.1465" x="648.92" y="216.0669"/><ellipse cx="760.6295" cy="232.0669" fill="#ADD1B2" rx="11" ry="11" style="stroke:#181818;stroke-width:1;"/><path d="M763.5982,237.7075 Q763.0201,238.0044 762.3795,238.145 Q761.7388,238.3012 761.0357,238.3012 Q758.5357,238.3012 757.2076,236.6606 Q755.8951,235.0044 755.8951,231.8794 Q755.8951,228.7544 757.2076,227.0981 Q758.5357,225.4419 761.0357,225.4419 Q761.7388,225.4419 762.3795,225.5981 Q763.0357,225.7544 763.5982,226.0512 L763.5982,228.77 Q762.9732,228.1919 762.3795,227.9262 Q761.7857,227.645 761.1607,227.645 Q759.817,227.645 759.1295,228.7231 Q758.442,229.7856 758.442,231.8794 Q758.442,233.9731 759.1295,235.0512 Q759.817,236.1137 761.1607,236.1137 Q761.7857,236.1137 762.3795,235.8481 Q762.9732,235.5669 763.5982,234.9887 L763.5982,237.7075 Z " fill="#000000"/><text fill="#000000" font-family="sans-serif" font-size="14" lengthAdjust="spacing" textLength="34.2275" x="781.1295" y="236.9136">IMAP</text><line style="stroke:#181818;stroke-width:0.5;" x1="649.92" x2="914.0665" y1="248.0669" y2="248.0669"/><ellipse cx="659.92" cy="261.7153" fill="none" rx="3" ry="3" style="stroke:#038048;stroke-width:1;"/><text fill="#000000" font-family="sans-serif" font-size="14" lengthAdjust="spacing" textLength="121.9668" x="668.92" y="265.062">Puerto: 143 / 993</text><line style="stroke:#181818;stroke-width:0.5;" x1="649.92" x2="914.0665" y1="272.3638" y2="272.3638"/><ellipse cx="659.92" cy="286.0122" fill="#84BE84" rx="3" ry="3" style="stroke:#038048;stroke-width:1;"/><text fill="#000000" font-family="sans-serif" font-size="14" lengthAdjust="spacing" textLength="240.1465" x="668.92" y="289.3589">Funci&#243;n: Recepci&#243;n (sincronizado)</text></g><g class="entity" data-entity="GMN11" data-source-line="38" data-uid="ent0012" id="entity_GMN11"><path d="M950.53,205.9669 L950.53,252.3669 L915.3,256.3669 L950.53,260.3669 L950.53,306.7638 A0,0 0 0 0 950.53,306.7638 L1299.4563,306.7638 A0,0 0 0 0 1299.4563,306.7638 L1299.4563,215.9669 L1289.4563,205.9669 L950.53,205.9669 A0,0 0 0 0 950.53,205.9669" fill="#FEFFDD" style="stroke:#181818;stroke-width:0.5;"/><path d="M1289.4563,205.9669 L1289.4563,215.9669 L1299.4563,215.9669 L1289.4563,205.9669" fill="#FEFFDD" style="stroke:#181818;stroke-width:0.5;"/><text fill="#000000" font-family="sans-serif" font-size="13" lengthAdjust="spacing" textLength="327.9263" x="956.53" y="223.0338">Permite acceder y gestionar correos directamente</text><text fill="#000000" font-family="sans-serif" font-size="13" lengthAdjust="spacing" textLength="281.0996" x="956.53" y="238.1666">en el servidor desde m&#250;ltiples dispositivos.</text><text fill="#000000" font-family="sans-serif" font-size="13" lengthAdjust="spacing" textLength="4.1323" x="956.53" y="253.2994">&#160;</text><text fill="#000000" font-family="sans-serif" font-size="13" lengthAdjust="spacing" textLength="56.6846" x="956.53" y="268.4322">Ejemplo:</text><text fill="#000000" font-family="sans-serif" font-size="13" lengthAdjust="spacing" textLength="267.1284" x="956.53" y="283.565">Acceder al mismo buz&#243;n desde el celular</text><text fill="#000000" font-family="sans-serif" font-size="13" lengthAdjust="spacing" textLength="239.6748" x="956.53" y="298.6978">y la laptop sin perder sincronizaci&#243;n.</text></g><!--class MIME--><g class="entity" data-entity="MIME" data-source-line="47" data-uid="ent0014" id="entity_MIME"><rect fill="#F1F1F1" height="64.2969" rx="2.5" ry="2.5" style="stroke:#181818;stroke-width:0.5;" width="325.667" x="347.15" y="394.4469"/><ellipse cx="487.1671" cy="410.4469" fill="#ADD1B2" rx="11" ry="11" style="stroke:#181818;stroke-width:1;"/><path d="M490.1358,416.0875 Q489.5577,416.3844 488.9171,416.525 Q488.2765,416.6813 487.5733,416.6813 Q485.0733,416.6813 483.7452,415.0406 Q482.4327,413.3844 482.4327,410.2594 Q482.4327,407.1344 483.7452,405.4781 Q485.0733,403.8219 487.5733,403.8219 Q488.2765,403.8219 488.9171,403.9781 Q489.5733,404.1344 490.1358,404.4313 L490.1358,407.15 Q489.5108,406.5719 488.9171,406.3063 Q488.3233,406.025 487.6983,406.025 Q486.3546,406.025 485.6671,407.1031 Q484.9796,408.1656 484.9796,410.2594 Q484.9796,412.3531 485.6671,413.4313 Q486.3546,414.4938 487.6983,414.4938 Q488.3233,414.4938 488.9171,414.2281 Q489.5108,413.9469 490.1358,413.3688 L490.1358,416.0875 Z " fill="#000000"/><text fill="#000000" font-family="sans-serif" font-size="14" lengthAdjust="spacing" textLength="37.1328" x="507.6671" y="415.2936">MIME</text><line style="stroke:#181818;stroke-width:0.5;" x1="348.15" x2="671.817" y1="426.4469" y2="426.4469"/><ellipse cx="358.15" cy="440.0953" fill="none" rx="3" ry="3" style="stroke:#038048;stroke-width:1;"/><text fill="#000000" font-family="sans-serif" font-size="14" lengthAdjust="spacing" textLength="299.667" x="367.15" y="443.442">Funci&#243;n: Formato de mensajes multimedia</text><line style="stroke:#181818;stroke-width:0.5;" x1="348.15" x2="671.817" y1="450.7438" y2="450.7438"/></g><g class="entity" data-entity="GMN15" data-source-line="52" data-uid="ent0016" id="entity_GMN15"><path d="M708.22,383.7669 L708.22,422.5969 L673.03,426.5969 L708.22,430.5969 L708.22,469.4309 A0,0 0 0 0 708.22,469.4309 L1053.763,469.4309 A0,0 0 0 0 1053.763,469.4309 L1053.763,393.7669 L1043.763,383.7669 L708.22,383.7669 A0,0 0 0 0 708.22,383.7669" fill="#FEFFDD" style="stroke:#181818;stroke-width:0.5;"/><path d="M1043.763,383.7669 L1043.763,393.7669 L1053.763,393.7669 L1043.763,383.7669" fill="#FEFFDD" style="stroke:#181818;stroke-width:0.5;"/><text fill="#000000" font-family="sans-serif" font-size="13" lengthAdjust="spacing" textLength="324.543" x="714.22" y="400.8338">Extensi&#243;n que permite que los correos contengan</text><text fill="#000000" font-family="sans-serif" font-size="13" lengthAdjust="spacing" textLength="278.9541" x="714.22" y="415.9666">im&#225;genes, audio, video, archivos adjuntos.</text><text fill="#000000" font-family="sans-serif" font-size="13" lengthAdjust="spacing" textLength="4.1323" x="714.22" y="431.0994">&#160;</text><text fill="#000000" font-family="sans-serif" font-size="13" lengthAdjust="spacing" textLength="56.6846" x="714.22" y="446.2322">Ejemplo:</text><text fill="#000000" font-family="sans-serif" font-size="13" lengthAdjust="spacing" textLength="295.1152" x="714.22" y="461.365">Enviar un PDF adjunto o un correo con HTML.</text></g><!--class ESMTP--><g class="entity" data-entity="ESMTP" data-source-line="59" data-uid="ent0018" id="entity_ESMTP"><rect fill="#F1F1F1" height="64.2969" rx="2.5" ry="2.5" style="stroke:#181818;stroke-width:0.5;" width="223.0801" x="1326.45" y="53.9869"/><ellipse cx="1410.3372" cy="69.9869" fill="#ADD1B2" rx="11" ry="11" style="stroke:#181818;stroke-width:1;"/><path d="M1413.306,75.6275 Q1412.7278,75.9244 1412.0872,76.065 Q1411.4466,76.2213 1410.7435,76.2213 Q1408.2435,76.2213 1406.9153,74.5806 Q1405.6028,72.9244 1405.6028,69.7994 Q1405.6028,66.6744 1406.9153,65.0181 Q1408.2435,63.3619 1410.7435,63.3619 Q1411.4466,63.3619 1412.0872,63.5181 Q1412.7435,63.6744 1413.306,63.9713 L1413.306,66.69 Q1412.681,66.1119 1412.0872,65.8463 Q1411.4935,65.565 1410.8685,65.565 Q1409.5247,65.565 1408.8372,66.6431 Q1408.1497,67.7056 1408.1497,69.7994 Q1408.1497,71.8931 1408.8372,72.9713 Q1409.5247,74.0338 1410.8685,74.0338 Q1411.4935,74.0338 1412.0872,73.7681 Q1412.681,73.4869 1413.306,72.9088 L1413.306,75.6275 Z " fill="#000000"/><text fill="#000000" font-family="sans-serif" font-size="14" lengthAdjust="spacing" textLength="46.8057" x="1430.8372" y="74.8336">ESMTP</text><line style="stroke:#181818;stroke-width:0.5;" x1="1327.45" x2="1548.5301" y1="85.9869" y2="85.9869"/><ellipse cx="1337.45" cy="99.6353" fill="none" rx="3" ry="3" style="stroke:#038048;stroke-width:1;"/><text fill="#000000" font-family="sans-serif" font-size="14" lengthAdjust="spacing" textLength="197.0801" x="1346.45" y="102.982">Funci&#243;n: Extensi&#243;n de SMTP</text><line style="stroke:#181818;stroke-width:0.5;" x1="1327.45" x2="1548.5301" y1="110.2838" y2="110.2838"/></g><g class="entity" data-entity="GMN19" data-source-line="64" data-uid="ent0020" id="entity_GMN19"><path d="M1584.76,43.2969 L1584.76,82.1369 L1549.88,86.1369 L1584.76,90.1369 L1584.76,128.9609 A0,0 0 0 0 1584.76,128.9609 L1969.2204,128.9609 A0,0 0 0 0 1969.2204,128.9609 L1969.2204,53.2969 L1959.2204,43.2969 L1584.76,43.2969 A0,0 0 0 0 1584.76,43.2969" fill="#FEFFDD" style="stroke:#181818;stroke-width:0.5;"/><path d="M1959.2204,43.2969 L1959.2204,53.2969 L1969.2204,53.2969 L1959.2204,43.2969" fill="#FEFFDD" style="stroke:#181818;stroke-width:0.5;"/><text fill="#000000" font-family="sans-serif" font-size="13" lengthAdjust="spacing" textLength="301.8691" x="1590.76" y="60.3638">Versi&#243;n extendida de SMTP con autenticaci&#243;n,</text><text fill="#000000" font-family="sans-serif" font-size="13" lengthAdjust="spacing" textLength="217.6738" x="1590.76" y="75.4966">compresi&#243;n y soporte para MIME.</text><text fill="#000000" font-family="sans-serif" font-size="13" lengthAdjust="spacing" textLength="4.1323" x="1590.76" y="90.6294">&#160;</text><text fill="#000000" font-family="sans-serif" font-size="13" lengthAdjust="spacing" textLength="56.6846" x="1590.76" y="105.7622">Ejemplo:</text><text fill="#000000" font-family="sans-serif" font-size="13" lengthAdjust="spacing" textLength="363.4604" x="1590.76" y="120.895">Login con usuario/contrase&#241;a antes de enviar el correo.</text></g><!--class STARTTLS--><g class="entity" data-entity="STARTTLS" data-source-line="71" data-uid="ent0022" id="entity_STARTTLS"><rect fill="#F1F1F1" height="64.2969" rx="2.5" ry="2.5" style="stroke:#181818;stroke-width:0.5;" width="201.8613" x="681.06" y="53.9869"/><ellipse cx="742.4741" cy="69.9869" fill="#ADD1B2" rx="11" ry="11" style="stroke:#181818;stroke-width:1;"/><path d="M745.4428,75.6275 Q744.8647,75.9244 744.2241,76.065 Q743.5834,76.2213 742.8803,76.2213 Q740.3803,76.2213 739.0522,74.5806 Q737.7397,72.9244 737.7397,69.7994 Q737.7397,66.6744 739.0522,65.0181 Q740.3803,63.3619 742.8803,63.3619 Q743.5834,63.3619 744.2241,63.5181 Q744.8803,63.6744 745.4428,63.9713 L745.4428,66.69 Q744.8178,66.1119 744.2241,65.8463 Q743.6303,65.565 743.0053,65.565 Q741.6616,65.565 740.9741,66.6431 Q740.2866,67.7056 740.2866,69.7994 Q740.2866,71.8931 740.9741,72.9713 Q741.6616,74.0338 743.0053,74.0338 Q743.6303,74.0338 744.2241,73.7681 Q744.8178,73.4869 745.4428,72.9088 L745.4428,75.6275 Z " fill="#000000"/><text fill="#000000" font-family="sans-serif" font-size="14" lengthAdjust="spacing" textLength="70.5332" x="762.9741" y="74.8336">STARTTLS</text><line style="stroke:#181818;stroke-width:0.5;" x1="682.06" x2="881.9213" y1="85.9869" y2="85.9869"/><line style="stroke:#181818;stroke-width:0.5;" x1="682.06" x2="881.9213" y1="93.9869" y2="93.9869"/><ellipse cx="692.06" cy="107.6353" fill="#84BE84" rx="3" ry="3" style="stroke:#038048;stroke-width:1;"/><text fill="#000000" font-family="sans-serif" font-size="14" lengthAdjust="spacing" textLength="175.8613" x="701.06" y="110.982">Funci&#243;n: Seguridad (TLS)</text></g><g class="entity" data-entity="GMN23" data-source-line="76" data-uid="ent0024" id="entity_GMN23"><path d="M917.87,43.2969 L917.87,82.1369 L883.35,86.1369 L917.87,90.1369 L917.87,128.9609 A0,0 0 0 0 917.87,128.9609 L1262.099,128.9609 A0,0 0 0 0 1262.099,128.9609 L1262.099,53.2969 L1252.099,43.2969 L917.87,43.2969 A0,0 0 0 0 917.87,43.2969" fill="#FEFFDD" style="stroke:#181818;stroke-width:0.5;"/><path d="M1252.099,43.2969 L1252.099,53.2969 L1262.099,53.2969 L1252.099,43.2969" fill="#FEFFDD" style="stroke:#181818;stroke-width:0.5;"/><text fill="#000000" font-family="sans-serif" font-size="13" lengthAdjust="spacing" textLength="250.561" x="923.87" y="60.3638">Protocolo que inicia una sesi&#243;n segura</text><text fill="#000000" font-family="sans-serif" font-size="13" lengthAdjust="spacing" textLength="236.1201" x="923.87" y="75.4966">(SSL/TLS) sobre SMTP, POP3 o IMAP.</text><text fill="#000000" font-family="sans-serif" font-size="13" lengthAdjust="spacing" textLength="4.1323" x="923.87" y="90.6294">&#160;</text><text fill="#000000" font-family="sans-serif" font-size="13" lengthAdjust="spacing" textLength="56.6846" x="923.87" y="105.7622">Ejemplo:</text><text fill="#000000" font-family="sans-serif" font-size="13" lengthAdjust="spacing" textLength="323.229" x="923.87" y="120.895">Correo cifrado entre el cliente y el servidor SMTP.</text></g><!--class DKIM--><g class="entity" data-entity="DKIM" data-source-line="83" data-uid="ent0026" id="entity_DKIM"><rect fill="#F1F1F1" height="64.2969" rx="2.5" ry="2.5" style="stroke:#181818;stroke-width:0.5;" width="223.1006" x="1760.44" y="394.4469"/><ellipse cx="1849.6558" cy="410.4469" fill="#ADD1B2" rx="11" ry="11" style="stroke:#181818;stroke-width:1;"/><path d="M1852.6246,416.0875 Q1852.0464,416.3844 1851.4058,416.525 Q1850.7652,416.6813 1850.0621,416.6813 Q1847.5621,416.6813 1846.2339,415.0406 Q1844.9214,413.3844 1844.9214,410.2594 Q1844.9214,407.1344 1846.2339,405.4781 Q1847.5621,403.8219 1850.0621,403.8219 Q1850.7652,403.8219 1851.4058,403.9781 Q1852.0621,404.1344 1852.6246,404.4313 L1852.6246,407.15 Q1851.9996,406.5719 1851.4058,406.3063 Q1850.8121,406.025 1850.1871,406.025 Q1848.8433,406.025 1848.1558,407.1031 Q1847.4683,408.1656 1847.4683,410.2594 Q1847.4683,412.3531 1848.1558,413.4313 Q1848.8433,414.4938 1850.1871,414.4938 Q1850.8121,414.4938 1851.4058,414.2281 Q1851.9996,413.9469 1852.6246,413.3688 L1852.6246,416.0875 Z " fill="#000000"/><text fill="#000000" font-family="sans-serif" font-size="14" lengthAdjust="spacing" textLength="36.1689" x="1870.1558" y="415.2936">DKIM</text><line style="stroke:#181818;stroke-width:0.5;" x1="1761.44" x2="1982.5406" y1="426.4469" y2="426.4469"/><ellipse cx="1771.44" cy="440.0953" fill="none" rx="3" ry="3" style="stroke:#038048;stroke-width:1;"/><text fill="#000000" font-family="sans-serif" font-size="14" lengthAdjust="spacing" textLength="197.1006" x="1780.44" y="443.442">Funci&#243;n: Firma de mensajes</text><line style="stroke:#181818;stroke-width:0.5;" x1="1761.44" x2="1982.5406" y1="450.7438" y2="450.7438"/></g><g class="entity" data-entity="GMN27" data-source-line="88" data-uid="ent0028" id="entity_GMN27"><path d="M2019.02,383.7669 L2019.02,422.5969 L1983.73,426.5969 L2019.02,430.5969 L2019.02,469.4309 A0,0 0 0 0 2019.02,469.4309 L2376.9472,469.4309 A0,0 0 0 0 2376.9472,469.4309 L2376.9472,393.7669 L2366.9472,383.7669 L2019.02,383.7669 A0,0 0 0 0 2019.02,383.7669" fill="#FEFFDD" style="stroke:#181818;stroke-width:0.5;"/><path d="M2366.9472,383.7669 L2366.9472,393.7669 L2376.9472,393.7669 L2366.9472,383.7669" fill="#FEFFDD" style="stroke:#181818;stroke-width:0.5;"/><text fill="#000000" font-family="sans-serif" font-size="13" lengthAdjust="spacing" textLength="290.8369" x="2025.02" y="400.8338">Permite verificar que el contenido del correo</text><text fill="#000000" font-family="sans-serif" font-size="13" lengthAdjust="spacing" textLength="336.9272" x="2025.02" y="415.9666">no fue alterado, mediante firma digital del dominio.</text><text fill="#000000" font-family="sans-serif" font-size="13" lengthAdjust="spacing" textLength="4.1323" x="2025.02" y="431.0994">&#160;</text><text fill="#000000" font-family="sans-serif" font-size="13" lengthAdjust="spacing" textLength="56.6846" x="2025.02" y="446.2322">Ejemplo:</text><text fill="#000000" font-family="sans-serif" font-size="13" lengthAdjust="spacing" textLength="334.0835" x="2025.02" y="461.365">El servidor de Gmail firma los correos con su clave.</text></g><!--class SPF--><g class="entity" data-entity="SPF" data-source-line="95" data-uid="ent0030" id="entity_SPF"><rect fill="#F1F1F1" height="64.2969" rx="2.5" ry="2.5" style="stroke:#181818;stroke-width:0.5;" width="242.9316" x="2411.52" y="394.4469"/><ellipse cx="2516.0449" cy="410.4469" fill="#ADD1B2" rx="11" ry="11" style="stroke:#181818;stroke-width:1;"/><path d="M2519.0137,416.0875 Q2518.4355,416.3844 2517.7949,416.525 Q2517.1543,416.6813 2516.4512,416.6813 Q2513.9512,416.6813 2512.623,415.0406 Q2511.3105,413.3844 2511.3105,410.2594 Q2511.3105,407.1344 2512.623,405.4781 Q2513.9512,403.8219 2516.4512,403.8219 Q2517.1543,403.8219 2517.7949,403.9781 Q2518.4512,404.1344 2519.0137,404.4313 L2519.0137,407.15 Q2518.3887,406.5719 2517.7949,406.3063 Q2517.2012,406.025 2516.5762,406.025 Q2515.2324,406.025 2514.5449,407.1031 Q2513.8574,408.1656 2513.8574,410.2594 Q2513.8574,412.3531 2514.5449,413.4313 Q2515.2324,414.4938 2516.5762,414.4938 Q2517.2012,414.4938 2517.7949,414.2281 Q2518.3887,413.9469 2519.0137,413.3688 L2519.0137,416.0875 Z " fill="#000000"/><text fill="#000000" font-family="sans-serif" font-size="14" lengthAdjust="spacing" textLength="25.3818" x="2536.5449" y="415.2936">SPF</text><line style="stroke:#181818;stroke-width:0.5;" x1="2412.52" x2="2653.4516" y1="426.4469" y2="426.4469"/><ellipse cx="2422.52" cy="440.0953" fill="none" rx="3" ry="3" style="stroke:#038048;stroke-width:1;"/><text fill="#000000" font-family="sans-serif" font-size="14" lengthAdjust="spacing" textLength="216.9316" x="2431.52" y="443.442">Funci&#243;n: Verificaci&#243;n de origen</text><line style="stroke:#181818;stroke-width:0.5;" x1="2412.52" x2="2653.4516" y1="450.7438" y2="450.7438"/></g><g class="entity" data-entity="GMN31" data-source-line="100" data-uid="ent0032" id="entity_GMN31"><path d="M2689.67,383.7669 L2689.67,422.5969 L2654.89,426.5969 L2689.67,430.5969 L2689.67,469.4309 A0,0 0 0 0 2689.67,469.4309 L3106.3067,469.4309 A0,0 0 0 0 3106.3067,469.4309 L3106.3067,393.7669 L3096.3067,383.7669 L2689.67,383.7669 A0,0 0 0 0 2689.67,383.7669" fill="#FEFFDD" style="stroke:#181818;stroke-width:0.5;"/><path d="M3096.3067,383.7669 L3096.3067,393.7669 L3106.3067,393.7669 L3096.3067,383.7669" fill="#FEFFDD" style="stroke:#181818;stroke-width:0.5;"/><text fill="#000000" font-family="sans-serif" font-size="13" lengthAdjust="spacing" textLength="293.6743" x="2695.67" y="400.8338">Define qu&#233; servidores pueden enviar correos</text><text fill="#000000" font-family="sans-serif" font-size="13" lengthAdjust="spacing" textLength="339.2441" x="2695.67" y="415.9666">en nombre de un dominio (prevenci&#243;n de spoofing).</text><text fill="#000000" font-family="sans-serif" font-size="13" lengthAdjust="spacing" textLength="4.1323" x="2695.67" y="431.0994">&#160;</text><text fill="#000000" font-family="sans-serif" font-size="13" lengthAdjust="spacing" textLength="56.6846" x="2695.67" y="446.2322">Ejemplo:</text><text fill="#000000" font-family="sans-serif" font-size="13" lengthAdjust="spacing" textLength="395.6367" x="2695.67" y="461.365">Rechazar correos enviados desde servidores no autorizados.</text></g><!--class DMARC--><g class="entity" data-entity="DMARC" data-source-line="107" data-uid="ent0034" id="entity_DMARC"><rect fill="#F1F1F1" height="64.2969" rx="2.5" ry="2.5" style="stroke:#181818;stroke-width:0.5;" width="261.9424" x="1089.02" y="394.4469"/><ellipse cx="1189.7715" cy="410.4469" fill="#ADD1B2" rx="11" ry="11" style="stroke:#181818;stroke-width:1;"/><path d="M1192.7402,416.0875 Q1192.1621,416.3844 1191.5215,416.525 Q1190.8808,416.6813 1190.1777,416.6813 Q1187.6777,416.6813 1186.3496,415.0406 Q1185.0371,413.3844 1185.0371,410.2594 Q1185.0371,407.1344 1186.3496,405.4781 Q1187.6777,403.8219 1190.1777,403.8219 Q1190.8808,403.8219 1191.5215,403.9781 Q1192.1777,404.1344 1192.7402,404.4313 L1192.7402,407.15 Q1192.1152,406.5719 1191.5215,406.3063 Q1190.9277,406.025 1190.3027,406.025 Q1188.959,406.025 1188.2715,407.1031 Q1187.584,408.1656 1187.584,410.2594 Q1187.584,412.3531 1188.2715,413.4313 Q1188.959,414.4938 1190.3027,414.4938 Q1190.9277,414.4938 1191.5215,414.2281 Q1192.1152,413.9469 1192.7402,413.3688 L1192.7402,416.0875 Z " fill="#000000"/><text fill="#000000" font-family="sans-serif" font-size="14" lengthAdjust="spacing" textLength="51.9395" x="1210.2715" y="415.2936">DMARC</text><line style="stroke:#181818;stroke-width:0.5;" x1="1090.02" x2="1349.9624" y1="426.4469" y2="426.4469"/><ellipse cx="1100.02" cy="440.0953" fill="none" rx="3" ry="3" style="stroke:#038048;stroke-width:1;"/><text fill="#000000" font-family="sans-serif" font-size="14" lengthAdjust="spacing" textLength="235.9424" x="1109.02" y="443.442">Funci&#243;n: Pol&#237;tica de autenticaci&#243;n</text><line style="stroke:#181818;stroke-width:0.5;" x1="1090.02" x2="1349.9624" y1="450.7438" y2="450.7438"/></g><g class="entity" data-entity="GMN35" data-source-line="112" data-uid="ent0036" id="entity_GMN35"><path d="M1386.09,383.7669 L1386.09,422.5969 L1351.24,426.5969 L1386.09,430.5969 L1386.09,469.4309 A0,0 0 0 0 1386.09,469.4309 L1725.882,469.4309 A0,0 0 0 0 1725.882,469.4309 L1725.882,393.7669 L1715.882,383.7669 L1386.09,383.7669 A0,0 0 0 0 1386.09,383.7669" fill="#FEFFDD" style="stroke:#181818;stroke-width:0.5;"/><path d="M1715.882,383.7669 L1715.882,393.7669 L1725.882,393.7669 L1715.882,383.7669" fill="#FEFFDD" style="stroke:#181818;stroke-width:0.5;"/><text fill="#000000" font-family="sans-serif" font-size="13" lengthAdjust="spacing" textLength="318.792" x="1392.09" y="400.8338">Combina DKIM y SPF para definir acciones frente</text><text fill="#000000" font-family="sans-serif" font-size="13" lengthAdjust="spacing" textLength="308.3818" x="1392.09" y="415.9666">a correos no verificados (rechazo, cuarentena).</text><text fill="#000000" font-family="sans-serif" font-size="13" lengthAdjust="spacing" textLength="4.1323" x="1392.09" y="431.0994">&#160;</text><text fill="#000000" font-family="sans-serif" font-size="13" lengthAdjust="spacing" textLength="56.6846" x="1392.09" y="446.2322">Ejemplo:</text><text fill="#000000" font-family="sans-serif" font-size="13" lengthAdjust="spacing" textLength="310.3877" x="1392.09" y="461.365">Eliminar directamente correos no autenticados.</text></g><!--link ESMTP to SMTP--><g class="link" data-entity-1="ESMTP" data-entity-2="SMTP" data-source-line="120" data-uid="lnk38" id="link_ESMTP_SMTP"><path codeLine="120" d="M1437.99,118.7769 C1437.99,146.2869 1437.99,168.2569 1437.99,197.8569" fill="none" id="ESMTP-to-SMTP" style="stroke:#181818;stroke-width:1;"/><polygon fill="none" points="1437.99,215.8569,1443.99,197.8569,1431.99,197.8569,1437.99,215.8569" style="stroke:#181818;stroke-width:1;"/><text fill="#000000" font-family="sans-serif" font-size="13" lengthAdjust="spacing" textLength="57.1035" x="1438.99" y="172.0338">Extiende</text></g><!--link STARTTLS to SMTP--><g class="link" data-entity-1="STARTTLS" data-entity-2="SMTP" data-source-line="121" data-uid="lnk39" id="link_STARTTLS_SMTP"><path codeLine="121" d="M865.92,118.7069 C877.28,122.4469 888.86,125.9869 899.99,128.9669 C1082.04,177.7169 1136.13,152.9569 1316.99,205.9669 C1326.57,208.7769 1330.7896,210.0311 1340.5496,213.5711" fill="none" id="STARTTLS-to-SMTP" style="stroke:#181818;stroke-width:1;stroke-dasharray:7,7;"/><polygon fill="#181818" points="1346.19,215.6169,1339.0932,208.7879,1341.4896,213.912,1336.3655,216.3084,1346.19,215.6169" style="stroke:#181818;stroke-width:1;"/><text fill="#000000" font-family="sans-serif" font-size="13" lengthAdjust="spacing" textLength="53.4663" x="1182.99" y="172.0338">Asegura</text></g><!--link STARTTLS to IMAP--><g class="link" data-entity-1="STARTTLS" data-entity-2="IMAP" data-source-line="122" data-uid="lnk40" id="link_STARTTLS_IMAP"><path codeLine="122" d="M781.99,118.7769 C781.99,146.2869 781.99,180.2569 781.99,209.8569" fill="none" id="STARTTLS-to-IMAP" style="stroke:#181818;stroke-width:1;stroke-dasharray:7,7;"/><polygon fill="#181818" points="781.99,215.8569,785.99,206.8569,781.99,210.8569,777.99,206.8569,781.99,215.8569" style="stroke:#181818;stroke-width:1;"/><text fill="#000000" font-family="sans-serif" font-size="13" lengthAdjust="spacing" textLength="53.4663" x="782.99" y="172.0338">Asegura</text></g><!--link STARTTLS to POP3--><g class="link" data-entity-1="STARTTLS" data-entity-2="POP3" data-source-line="123" data-uid="lnk41" id="link_STARTTLS_POP3"><path codeLine="123" d="M681,107.2969 C577.51,128.7469 412.32,165.1669 271.99,205.9669 C261.78,208.9369 256.925,210.3586 246.395,213.7886" fill="none" id="STARTTLS-to-POP3" style="stroke:#181818;stroke-width:1;stroke-dasharray:7,7;"/><polygon fill="#181818" points="240.69,215.6469,250.4863,216.6627,245.4441,214.0983,248.0086,209.0561,240.69,215.6469" style="stroke:#181818;stroke-width:1;"/><text fill="#000000" font-family="sans-serif" font-size="13" lengthAdjust="spacing" textLength="53.4663" x="439.99" y="172.0338">Asegura</text></g><!--link SMTP to MIME--><g class="link" data-entity-1="SMTP" data-entity-2="MIME" data-source-line="125" data-uid="lnk42" id="link_SMTP_MIME"><path codeLine="125" d="M1348.03,297.1169 C1337.69,300.7769 1327.2,304.0969 1316.99,306.7669 C1045.73,377.4669 967.04,335.0269 690.99,383.7669 C674.16,386.7369 662.3954,389.0032 645.0354,392.7432" fill="none" id="SMTP-to-MIME" style="stroke:#181818;stroke-width:1;stroke-dasharray:7,7;"/><polygon fill="#181818" points="639.17,394.0069,648.8106,396.0217,644.0579,392.9538,647.1257,388.2011,639.17,394.0069" style="stroke:#181818;stroke-width:1;"/><text fill="#000000" font-family="sans-serif" font-size="13" lengthAdjust="spacing" textLength="24.2544" x="1175.99" y="349.8338">Usa</text></g><!--link POP3 to MIME--><g class="link" data-entity-1="POP3" data-entity-2="MIME" data-source-line="126" data-uid="lnk43" id="link_POP3_MIME"><path codeLine="126" d="M220.33,297.0169 C287.07,326.6469 371.6059,364.1728 433.4759,391.6328" fill="none" id="POP3-to-MIME" style="stroke:#181818;stroke-width:1;stroke-dasharray:7,7;"/><polygon fill="#181818" points="438.96,394.0669,432.3565,386.7597,434.3899,392.0385,429.1111,394.0719,438.96,394.0669" style="stroke:#181818;stroke-width:1;"/><text fill="#000000" font-family="sans-serif" font-size="13" lengthAdjust="spacing" textLength="24.2544" x="344.99" y="349.8338">Usa</text></g><!--link IMAP to MIME--><g class="link" data-entity-1="IMAP" data-entity-2="MIME" data-source-line="127" data-uid="lnk44" id="link_IMAP_MIME"><path codeLine="127" d="M717.87,297.0169 C669.97,326.6469 610.4732,363.4514 566.0632,390.9114" fill="none" id="IMAP-to-MIME" style="stroke:#181818;stroke-width:1;stroke-dasharray:7,7;"/><polygon fill="#181818" points="560.96,394.0669,570.7185,392.7358,565.2127,391.4373,566.5112,385.9315,560.96,394.0669" style="stroke:#181818;stroke-width:1;"/><text fill="#000000" font-family="sans-serif" font-size="13" lengthAdjust="spacing" textLength="24.2544" x="646.99" y="349.8338">Usa</text></g><!--link SMTP to DKIM--><g class="link" data-entity-1="SMTP" data-entity-2="DKIM" data-source-line="129" data-uid="lnk45" id="link_SMTP_DKIM"><path codeLine="129" d="M1534.66,297.0769 C1542.88,300.3769 1551.07,303.6469 1558.99,306.7669 C1635.92,337.0669 1718.3813,368.2721 1781.4613,391.9021" fill="none" id="SMTP-to-DKIM" style="stroke:#181818;stroke-width:1;"/><polygon fill="#181818" points="1787.08,394.0069,1780.0551,387.1039,1782.3977,392.2529,1777.2487,394.5955,1787.08,394.0069" style="stroke:#181818;stroke-width:1;"/><text fill="#000000" font-family="sans-serif" font-size="13" lengthAdjust="spacing" textLength="24.2544" x="1679.99" y="349.8338">Usa</text></g><!--link SMTP to SPF--><g class="link" data-entity-1="SMTP" data-entity-2="SPF" data-source-line="130" data-uid="lnk46" id="link_SMTP_SPF"><path codeLine="130" d="M1526.87,297.0769 C1537.54,300.8269 1548.41,304.1769 1558.99,306.7669 C1740,351.0169 2211.07,348.1769 2393.99,383.7669 C2408.09,386.5069 2417.0141,388.5083 2431.3641,392.4483" fill="none" id="SMTP-to-SPF" style="stroke:#181818;stroke-width:1;"/><polygon fill="#181818" points="2437.15,394.0369,2429.5302,387.7967,2432.3284,392.713,2427.4121,395.5112,2437.15,394.0369" style="stroke:#181818;stroke-width:1;"/><text fill="#000000" font-family="sans-serif" font-size="13" lengthAdjust="spacing" textLength="24.2544" x="2053.99" y="349.8338">Usa</text></g><!--link SMTP to DMARC--><g class="link" data-entity-1="SMTP" data-entity-2="DMARC" data-source-line="131" data-uid="lnk47" id="link_SMTP_DMARC"><path codeLine="131" d="M1386.6,297.0169 C1348.21,326.6469 1301.1804,362.9416 1265.5904,390.4016" fill="none" id="SMTP-to-DMARC" style="stroke:#181818;stroke-width:1;"/><polygon fill="#181818" points="1260.84,394.0669,1270.4091,391.736,1264.7986,391.0125,1265.5221,385.4021,1260.84,394.0669" style="stroke:#181818;stroke-width:1;"/><text fill="#000000" font-family="sans-serif" font-size="13" lengthAdjust="spacing" textLength="24.2544" x="1329.99" y="349.8338">Usa</text></g><!--SRC=[TLPDRnit4BtpLymjCghOTLsZZGy1Z5XkZLg8O2a1UgHtHn9TBhabkKBjj3ycnnvoA7hhLN-iC-Ikbbef9qdyc9dtvisZWWeQuG6rB9Grw05DS0WpPuCjhBOUIeHtrZcqCD5O1BVzrwZ22l4gFrGxPGfLIurU55fw3_FfOWQV1C0timPTi5VmtIMSmUMFF_3QRKF7AT8LJCnc-yLobY9cyU8l8OmD24wjrW7iCeOIksHGIoUfp8sIhhi3c9N69NkAXneAhGWFYZMXaxpWqMrKQHtO5cYtWBuluLI8oHDMjRPNugTAAWsDbmbGdhj2u-KJ0PPWWwEqCHRHw2bEPU5z4xIrlr6gN-NQKbGq9J0oqL8qUp-xsAVe_FnRukZDcyjzZXwmm3f-Xn5XAwHRINToI1G771Bbi52FgcUglR_zR4hkd90QIkLhwrLG6mlQ5bAFYIfLATCTeaizTJax7qn7CRD7aPqArYaBeyMwCIKwoboUYAvcq96RLCXp_FL8l-GW_f2dk-drG4hdtrz4dYw-pfCdGJfhr8iixH6gEAQOeQiKhSgYG2gMIbgX3pG7cR9AHGm6MKKTeTaJKT9PjVrF1rLhbb3FfCzvkcuJ4DcLygIDn-Q5g-o5YhhHqWaYXLYITR0r40AeqV6z7an4brEqDuQaEwg3QvNKXMuKftVJIUAlf-hMkag6E7UTZg5g24U5fPA7V74CCVaZqDd8x-yDSd6HFlwUTxQmn9LPIIDKjVsyGhALCSYcL7OCH1pIXtJ5caa2MJur9kopDKdprHYOtTns9sYCQ26bu0pmys9wVwYLIUyxcSVqTHFUQ2S70ED5yH5TEeTyfLIbx6x4dBAXrQ2Ar8QnOBx9EkADP_2sjevYnhbZmd9GztQbJ0pI-8QxSyOqEUbn-uy4IOn51sgzXINHUj4GuNnn_R1OtC-78EUuQXmLNDBmtS-FIBwxc3a4TqwHPv8vDaQIi1CKpw6a6CtdzsSSYv0zkaJ3EBcMZGEKuslVY48j7KrSwwwz1HCz-UHmg4DeDx_SJG-4gaYekKmFWV6rtInlqAabTSX5S957LYDbZIwJMAK0iAHjgGDokME8ikSwbocVMgd0raXNIajMgFPUXScU2K1w9DBDmI20RuW2kS4ZZPpT3i5-R8ilEgsIcTBy7Edbx5RSu58Pdhxjt_apLZTaDMRmGB9p6Ljn5oag3L8B2aQatmsQNKBoBqjXLoSvNFBLjNp9driENkvUsYmx4Kj3GcMpx_eZBPvUFxmRmfvPlVt2OyKLxC_OaMvp199RzQX8ib4opv7BE7ObaqBF7Lbw-Z-pTD6vvQvsgh3J22COkGYE953GMF9P8q_sUyrF8O7FNu8ysgxW0U1NsTygaNpfzUi_toOtYQP4ar6Ys0tqwUbkyxeTmRsz-0v-PIzEPRydOXpUYEP_1H-y5F7CO2t67Ao9jjQtYTsqk5jZgWTBgQbnyNy0]--></g></svg>